<mxfile host="app.diagrams.net" agent="Mozilla/5.0 (Windows NT 10.0; Win64; x64) AppleWebKit/537.36 (KHTML, like Gecko) Chrome/131.0.0.0 Safari/537.36 Edg/131.0.0.0" version="26.0.2">
  <diagram name="PÃ¡gina-1" id="UZA3DpwESCK6koD5ipCv">
    <mxGraphModel dx="2066" dy="747" grid="1" gridSize="10" guides="1" tooltips="1" connect="1" arrows="1" fold="1" page="1" pageScale="1" pageWidth="827" pageHeight="1169" math="0" shadow="0">
      <root>
        <mxCell id="0" />
        <mxCell id="1" parent="0" />
        <mxCell id="lehRbZBesli6KVulap8z-20" value="Frontend" style="swimlane;horizontal=0;whiteSpace=wrap;html=1;" vertex="1" parent="1">
          <mxGeometry width="820" height="270" as="geometry">
            <mxRectangle width="40" height="80" as="alternateBounds" />
          </mxGeometry>
        </mxCell>
        <mxCell id="lehRbZBesli6KVulap8z-25" value="React app" style="rounded=1;whiteSpace=wrap;html=1;" vertex="1" parent="lehRbZBesli6KVulap8z-20">
          <mxGeometry x="50" y="110" width="120" height="60" as="geometry" />
        </mxCell>
        <mxCell id="lehRbZBesli6KVulap8z-21" value="Backend" style="swimlane;horizontal=0;whiteSpace=wrap;html=1;" vertex="1" parent="1">
          <mxGeometry y="270" width="820" height="410" as="geometry" />
        </mxCell>
        <mxCell id="lehRbZBesli6KVulap8z-31" value="FastAPI" style="swimlane;fontStyle=0;childLayout=stackLayout;horizontal=1;startSize=30;horizontalStack=0;resizeParent=1;resizeParentMax=0;resizeLast=0;collapsible=1;marginBottom=0;whiteSpace=wrap;html=1;" vertex="1" parent="lehRbZBesli6KVulap8z-21">
          <mxGeometry x="130" y="10" width="140" height="180" as="geometry" />
        </mxCell>
        <mxCell id="lehRbZBesli6KVulap8z-32" value="User Service" style="text;strokeColor=none;fillColor=none;align=left;verticalAlign=middle;spacingLeft=4;spacingRight=4;overflow=hidden;points=[[0,0.5],[1,0.5]];portConstraint=eastwest;rotatable=0;whiteSpace=wrap;html=1;" vertex="1" parent="lehRbZBesli6KVulap8z-31">
          <mxGeometry y="30" width="140" height="30" as="geometry" />
        </mxCell>
        <mxCell id="lehRbZBesli6KVulap8z-33" value="Notification Service" style="text;strokeColor=none;fillColor=none;align=left;verticalAlign=middle;spacingLeft=4;spacingRight=4;overflow=hidden;points=[[0,0.5],[1,0.5]];portConstraint=eastwest;rotatable=0;whiteSpace=wrap;html=1;" vertex="1" parent="lehRbZBesli6KVulap8z-31">
          <mxGeometry y="60" width="140" height="30" as="geometry" />
        </mxCell>
        <mxCell id="lehRbZBesli6KVulap8z-34" value="Subscription Service" style="text;strokeColor=none;fillColor=none;align=left;verticalAlign=middle;spacingLeft=4;spacingRight=4;overflow=hidden;points=[[0,0.5],[1,0.5]];portConstraint=eastwest;rotatable=0;whiteSpace=wrap;html=1;" vertex="1" parent="lehRbZBesli6KVulap8z-31">
          <mxGeometry y="90" width="140" height="30" as="geometry" />
        </mxCell>
        <mxCell id="lehRbZBesli6KVulap8z-37" value="Transcription Service" style="text;strokeColor=none;fillColor=none;align=left;verticalAlign=middle;spacingLeft=4;spacingRight=4;overflow=hidden;points=[[0,0.5],[1,0.5]];portConstraint=eastwest;rotatable=0;whiteSpace=wrap;html=1;" vertex="1" parent="lehRbZBesli6KVulap8z-31">
          <mxGeometry y="120" width="140" height="30" as="geometry" />
        </mxCell>
        <mxCell id="lehRbZBesli6KVulap8z-38" value="Websocket Manager" style="text;strokeColor=none;fillColor=none;align=left;verticalAlign=middle;spacingLeft=4;spacingRight=4;overflow=hidden;points=[[0,0.5],[1,0.5]];portConstraint=eastwest;rotatable=0;whiteSpace=wrap;html=1;" vertex="1" parent="lehRbZBesli6KVulap8z-31">
          <mxGeometry y="150" width="140" height="30" as="geometry" />
        </mxCell>
        <mxCell id="lehRbZBesli6KVulap8z-65" style="edgeStyle=orthogonalEdgeStyle;rounded=0;orthogonalLoop=1;jettySize=auto;html=1;exitX=1;exitY=0.5;exitDx=0;exitDy=0;" edge="1" parent="lehRbZBesli6KVulap8z-21" source="lehRbZBesli6KVulap8z-41">
          <mxGeometry relative="1" as="geometry">
            <mxPoint x="740" y="450" as="targetPoint" />
          </mxGeometry>
        </mxCell>
        <mxCell id="lehRbZBesli6KVulap8z-41" value="&lt;ul&gt;&lt;li&gt;&lt;li&gt;Sends WhatsApp notifications (quota usage alerts, plan upgrade suggestions).&lt;/li&gt;&lt;li&gt;Connects to &lt;strong&gt;RabbitMQ&lt;/strong&gt; for notification task queues.&lt;/li&gt;&lt;/li&gt;&lt;/ul&gt;" style="rounded=0;whiteSpace=wrap;html=1;align=left;" vertex="1" parent="lehRbZBesli6KVulap8z-21">
          <mxGeometry x="370" y="80" width="260" height="60" as="geometry" />
        </mxCell>
        <mxCell id="lehRbZBesli6KVulap8z-42" style="edgeStyle=none;rounded=0;orthogonalLoop=1;jettySize=auto;html=1;exitX=1;exitY=0.5;exitDx=0;exitDy=0;entryX=0;entryY=0.5;entryDx=0;entryDy=0;" edge="1" parent="lehRbZBesli6KVulap8z-21" source="lehRbZBesli6KVulap8z-33" target="lehRbZBesli6KVulap8z-41">
          <mxGeometry relative="1" as="geometry" />
        </mxCell>
        <mxCell id="lehRbZBesli6KVulap8z-43" value="&lt;ul&gt;&lt;li&gt;Manages plan subscriptions using Asaas API.&lt;/li&gt;&lt;li&gt;Tracks subscription details in &lt;strong&gt;Firebase&lt;/strong&gt;.&lt;/li&gt;&lt;li&gt;Sends data to &lt;strong&gt;Redis&lt;/strong&gt; for caching subscription quotas.&lt;/li&gt;&lt;/ul&gt;" style="rounded=0;whiteSpace=wrap;html=1;align=left;" vertex="1" parent="lehRbZBesli6KVulap8z-21">
          <mxGeometry x="370" y="150" width="260" height="70" as="geometry" />
        </mxCell>
        <mxCell id="lehRbZBesli6KVulap8z-44" style="edgeStyle=none;rounded=0;orthogonalLoop=1;jettySize=auto;html=1;exitX=1;exitY=0.5;exitDx=0;exitDy=0;entryX=0;entryY=0.5;entryDx=0;entryDy=0;" edge="1" parent="lehRbZBesli6KVulap8z-21" source="lehRbZBesli6KVulap8z-34" target="lehRbZBesli6KVulap8z-43">
          <mxGeometry relative="1" as="geometry" />
        </mxCell>
        <mxCell id="lehRbZBesli6KVulap8z-45" value="&lt;ul&gt;&lt;li&gt;Processes audio using OpenAI Whisper.&lt;/li&gt;&lt;li&gt;Connects to &lt;strong&gt;RabbitMQ&lt;/strong&gt; for task orchestration.&lt;/li&gt;&lt;li&gt;Stores transcription metadata in &lt;strong&gt;Firebase&lt;/strong&gt;.&lt;/li&gt;&lt;/ul&gt;" style="rounded=0;whiteSpace=wrap;html=1;align=left;" vertex="1" parent="lehRbZBesli6KVulap8z-21">
          <mxGeometry x="370" y="230" width="260" height="70" as="geometry" />
        </mxCell>
        <mxCell id="lehRbZBesli6KVulap8z-46" style="edgeStyle=none;rounded=0;orthogonalLoop=1;jettySize=auto;html=1;exitX=1;exitY=0.5;exitDx=0;exitDy=0;entryX=0.005;entryY=0.6;entryDx=0;entryDy=0;entryPerimeter=0;" edge="1" parent="lehRbZBesli6KVulap8z-21" source="lehRbZBesli6KVulap8z-37" target="lehRbZBesli6KVulap8z-45">
          <mxGeometry relative="1" as="geometry" />
        </mxCell>
        <mxCell id="lehRbZBesli6KVulap8z-47" value="&lt;ul&gt;&lt;li&gt;Manages real-time communication between the backend and the frontend.&lt;/li&gt;&lt;/ul&gt;" style="rounded=0;whiteSpace=wrap;html=1;align=left;" vertex="1" parent="lehRbZBesli6KVulap8z-21">
          <mxGeometry x="370" y="310" width="260" height="60" as="geometry" />
        </mxCell>
        <mxCell id="lehRbZBesli6KVulap8z-48" style="edgeStyle=none;rounded=0;orthogonalLoop=1;jettySize=auto;html=1;exitX=1;exitY=0.5;exitDx=0;exitDy=0;entryX=0;entryY=0.5;entryDx=0;entryDy=0;" edge="1" parent="lehRbZBesli6KVulap8z-21" source="lehRbZBesli6KVulap8z-38" target="lehRbZBesli6KVulap8z-47">
          <mxGeometry relative="1" as="geometry">
            <mxPoint x="340" y="320" as="targetPoint" />
          </mxGeometry>
        </mxCell>
        <mxCell id="lehRbZBesli6KVulap8z-39" value="&lt;ul&gt;&lt;li&gt;Handles user authentication (JWT, OAuth2) and profile management.&lt;/li&gt;&lt;li&gt;Connects to &lt;strong&gt;Firebase&lt;/strong&gt; for user data.&lt;/li&gt;&lt;/ul&gt;" style="rounded=0;whiteSpace=wrap;html=1;align=left;" vertex="1" parent="lehRbZBesli6KVulap8z-21">
          <mxGeometry x="370" y="10" width="260" height="60" as="geometry" />
        </mxCell>
        <mxCell id="lehRbZBesli6KVulap8z-40" style="edgeStyle=none;rounded=0;orthogonalLoop=1;jettySize=auto;html=1;exitX=1;exitY=0.5;exitDx=0;exitDy=0;entryX=0;entryY=0.5;entryDx=0;entryDy=0;" edge="1" parent="lehRbZBesli6KVulap8z-21" source="lehRbZBesli6KVulap8z-32" target="lehRbZBesli6KVulap8z-39">
          <mxGeometry relative="1" as="geometry" />
        </mxCell>
        <mxCell id="lehRbZBesli6KVulap8z-22" value="Infrastructure" style="swimlane;horizontal=0;whiteSpace=wrap;html=1;" vertex="1" parent="1">
          <mxGeometry y="680" width="820" height="270" as="geometry">
            <mxRectangle y="540" width="40" height="100" as="alternateBounds" />
          </mxGeometry>
        </mxCell>
        <mxCell id="lehRbZBesli6KVulap8z-56" value="Vercel" style="rounded=0;whiteSpace=wrap;html=1;" vertex="1" parent="lehRbZBesli6KVulap8z-22">
          <mxGeometry x="50" y="120" width="120" height="60" as="geometry" />
        </mxCell>
        <mxCell id="lehRbZBesli6KVulap8z-59" value="Hetzner VPS" style="rounded=0;whiteSpace=wrap;html=1;" vertex="1" parent="lehRbZBesli6KVulap8z-22">
          <mxGeometry x="140" y="40" width="120" height="60" as="geometry" />
        </mxCell>
        <mxCell id="lehRbZBesli6KVulap8z-61" style="edgeStyle=none;rounded=0;orthogonalLoop=1;jettySize=auto;html=1;exitX=0.75;exitY=0;exitDx=0;exitDy=0;" edge="1" parent="lehRbZBesli6KVulap8z-22" source="lehRbZBesli6KVulap8z-59" target="lehRbZBesli6KVulap8z-59">
          <mxGeometry relative="1" as="geometry" />
        </mxCell>
        <mxCell id="lehRbZBesli6KVulap8z-62" value="Evolution API" style="rounded=0;whiteSpace=wrap;html=1;" vertex="1" parent="lehRbZBesli6KVulap8z-22">
          <mxGeometry x="680" y="40" width="120" height="60" as="geometry" />
        </mxCell>
        <mxCell id="lehRbZBesli6KVulap8z-23" value="Database" style="swimlane;horizontal=0;whiteSpace=wrap;html=1;" vertex="1" parent="1">
          <mxGeometry y="1220" width="820" height="270" as="geometry">
            <mxRectangle y="810" width="40" height="80" as="alternateBounds" />
          </mxGeometry>
        </mxCell>
        <mxCell id="lehRbZBesli6KVulap8z-24" value="Messaging and Caching" style="swimlane;horizontal=0;whiteSpace=wrap;html=1;" vertex="1" parent="1">
          <mxGeometry y="950" width="820" height="270" as="geometry" />
        </mxCell>
        <mxCell id="lehRbZBesli6KVulap8z-54" style="edgeStyle=none;rounded=0;orthogonalLoop=1;jettySize=auto;html=1;exitX=0.5;exitY=1;exitDx=0;exitDy=0;entryX=0.5;entryY=0;entryDx=0;entryDy=0;" edge="1" parent="1" source="lehRbZBesli6KVulap8z-25" target="lehRbZBesli6KVulap8z-31">
          <mxGeometry relative="1" as="geometry" />
        </mxCell>
        <mxCell id="lehRbZBesli6KVulap8z-55" style="edgeStyle=none;rounded=0;orthogonalLoop=1;jettySize=auto;html=1;exitX=0.5;exitY=0;exitDx=0;exitDy=0;entryX=0.5;entryY=1;entryDx=0;entryDy=0;" edge="1" parent="1" source="lehRbZBesli6KVulap8z-31" target="lehRbZBesli6KVulap8z-25">
          <mxGeometry relative="1" as="geometry" />
        </mxCell>
        <mxCell id="lehRbZBesli6KVulap8z-58" style="edgeStyle=none;rounded=0;orthogonalLoop=1;jettySize=auto;html=1;exitX=0.5;exitY=0;exitDx=0;exitDy=0;entryX=0.5;entryY=1;entryDx=0;entryDy=0;shape=link;" edge="1" parent="1" source="lehRbZBesli6KVulap8z-56" target="lehRbZBesli6KVulap8z-25">
          <mxGeometry relative="1" as="geometry" />
        </mxCell>
        <mxCell id="lehRbZBesli6KVulap8z-60" style="edgeStyle=none;rounded=0;orthogonalLoop=1;jettySize=auto;html=1;exitX=0.5;exitY=0;exitDx=0;exitDy=0;shape=link;entryX=0.486;entryY=1.039;entryDx=0;entryDy=0;entryPerimeter=0;" edge="1" parent="1" source="lehRbZBesli6KVulap8z-59" target="lehRbZBesli6KVulap8z-38">
          <mxGeometry relative="1" as="geometry">
            <mxPoint x="200" y="480" as="targetPoint" />
          </mxGeometry>
        </mxCell>
        <mxCell id="lehRbZBesli6KVulap8z-63" style="edgeStyle=orthogonalEdgeStyle;rounded=0;orthogonalLoop=1;jettySize=auto;html=1;exitX=1;exitY=0.5;exitDx=0;exitDy=0;entryX=0.5;entryY=0;entryDx=0;entryDy=0;" edge="1" parent="1" source="lehRbZBesli6KVulap8z-45" target="lehRbZBesli6KVulap8z-62">
          <mxGeometry relative="1" as="geometry" />
        </mxCell>
        <mxCell id="lehRbZBesli6KVulap8z-64" style="edgeStyle=orthogonalEdgeStyle;rounded=0;orthogonalLoop=1;jettySize=auto;html=1;exitX=0.5;exitY=0;exitDx=0;exitDy=0;entryX=1;entryY=0.5;entryDx=0;entryDy=0;" edge="1" parent="1" source="lehRbZBesli6KVulap8z-62" target="lehRbZBesli6KVulap8z-45">
          <mxGeometry relative="1" as="geometry" />
        </mxCell>
        <mxCell id="lehRbZBesli6KVulap8z-66" style="edgeStyle=orthogonalEdgeStyle;rounded=0;orthogonalLoop=1;jettySize=auto;html=1;exitX=0.5;exitY=0;exitDx=0;exitDy=0;entryX=1;entryY=0.5;entryDx=0;entryDy=0;" edge="1" parent="1" source="lehRbZBesli6KVulap8z-62" target="lehRbZBesli6KVulap8z-41">
          <mxGeometry relative="1" as="geometry" />
        </mxCell>
      </root>
    </mxGraphModel>
  </diagram>
</mxfile>
